<svg height="30" viewBox="0 0 44 58" width="30" xmlns="http://www.w3.org/2000/svg">
<path d="m10.3.293-7 7c-.28502585.28509112-.37099381.71344929-.21803945 1.08643943s.51491629.61766296.91803945.62056057h3v7c0 .5522847.44771525 1 1 1h6c.5522847 0 1-.4477153 1-1v-7h3c.4043959-.00008635.7689341-.2437275.923678-.61734544s.0692299-.80366031-.216678-1.08965456l-7-7c-.3896849-.38573966-1.0173151-.38573966-1.407 0z"/>
<path d="m32.291 16.707c.3904999.3903819 1.0235001.3903819 1.414 0l7-7c.2856523-.28573662.3712943-.71529528.2170628-1.08873243-.1542315-.37343716-.5180308-.61737421-.9220628-.61826757h-3v-7c0-.55228475-.4477153-1-1-1h-6c-.5522847 0-1 .44771525-1 1v7h-3c-.4043959.00008635-.7689341.2437275-.923678.61734544s-.0692299.80366031.216678 1.08965456z"/>
<path d="m44 56v-33c-.0032948-1.1032019-.8967981-1.9967052-2-2h-40c-1.10320187.0032948-1.9967052.8967981-2 2v33c.0032948 1.1032019.89679813 1.9967052 2 2h40c1.1032019-.0032948 1.9967052-.8967981 2-2zm-12-32c1.7801246-.0025574 3.3477312 1.1715706 3.8459129 2.880566.4981816 1.7089953-.1929571 3.5415603-1.6956165 4.4959527-1.5026593.9543924-3.4551998.8009222-4.7902964-.3765187-1.2468984-1.0996576-1.683601-2.8559509-1.0969268-4.4115267.5866743-1.5555757 2.0743996-2.5860848 3.7369268-2.5884733zm-20 0c1.7801246-.0025574 3.3477312 1.1715706 3.8459129 2.880566.4981816 1.7089953-.1929571 3.5415603-1.6956165 4.4959527-1.5026593.9543924-3.4551998.8009222-4.7902964-.3765187-1.24689843-1.0996576-1.68360103-2.8559509-1.09692676-4.4115267.58667427-1.5555757 2.07439956-2.5860848 3.73692676-2.5884733zm7 16c0 .5522847-.4477153 1-1 1s-1-.4477153-1-1v-4c0-.5522847-.4477153-1-1-1s-1 .4477153-1 1v17c-.003293.4042387-.2496464.7667342-.6242868.9186036-.3746405.1518695-.8038692.0632373-1.0877132-.2246036-.1865985-.1823963-.2906276-.4330776-.288-.694v-10c0-.5522847-.4477153-1-1-1s-1 .4477153-1 1v10c0 .5522847-.4477153 1-1 1-.55228475 0-1-.4477153-1-1v-17c0-.5522847-.44771525-1-1-1s-1 .4477153-1 1v4c0 .5522847-.44771525 1-1 1s-1-.4477153-1-1v-4c0-1.6568542 1.34314575-3 3-3h8c1.6568542 0 3 1.3431458 3 3zm20 0c0 .5522847-.4477153 1-1 1s-1-.4477153-1-1v-4c0-.5522847-.4477153-1-1-1s-1 .4477153-1 1v17c-.003293.4042387-.2496464.7667342-.6242868.9186036-.3746405.1518695-.8038692.0632373-1.0877132-.2246036-.1865985-.1823963-.2906276-.4330776-.288-.694v-10c0-.5522847-.4477153-1-1-1s-1 .4477153-1 1v10c0 .5522847-.4477153 1-1 1s-1-.4477153-1-1v-17c0-.5522847-.4477153-1-1-1s-1 .4477153-1 1v4c0 .5522847-.4477153 1-1 1s-1-.4477153-1-1v-4c0-1.6568542 1.3431458-3 3-3h8c1.6568542 0 3 1.3431458 3 3z"/>
</svg>