<svg width="53" height="32" viewBox="0 0 53 32" fill="none" xmlns="http://www.w3.org/2000/svg">
<rect x="0.5" y="0.5" width="52" height="31" fill="black" stroke="black"/>
<path d="M29.7143 26V18.125H28V12.35C28 11.195 29.0286 10.25 30.2857 10.25H33.7143C34.9714 10.25 36 11.195 36 12.35V18.125H34.2857V26H29.7143ZM32 9.2C33.2686 9.2 34.2857 8.2655 34.2857 7.1C34.2857 5.9345 33.2686 5 32 5C30.7314 5 29.7143 5.9345 29.7143 7.1C29.7143 8.2655 30.7314 9.2 32 9.2Z" fill="white"/>
<path d="M21.6667 27V20.4H25L22.1778 12.007C21.8667 11.105 21.0222 10.5 20.0667 10.5H19.9333C18.9778 10.5 18.1222 11.105 17.8222 12.007L15 20.4H18.3333V27H21.6667ZM20 9.4C21.2333 9.4 22.2222 8.421 22.2222 7.2C22.2222 5.979 21.2333 5 20 5C18.7667 5 17.7778 5.979 17.7778 7.2C17.7778 8.421 18.7667 9.4 20 9.4Z" fill="white"/>
<path d="M41.8225 17L44.5 13.9096L47.1775 17L48 16.0486L44.5 12L41 16.0486L41.8225 17Z" fill="white"/>
<path d="M10.1775 12L7.5 15.0904L4.8225 12L4 12.9514L7.5 17L11 12.9514L10.1775 12Z" fill="white"/>
</svg>
