<svg width="14" height="20" viewBox="0 0 14 20" fill="none" xmlns="http://www.w3.org/2000/svg">
<path d="M7 0C3.13 0 0 3.13 0 7C0 12.25 7 20 7 20C7 20 14 12.25 14 7C14 3.13 10.87 0 7 0Z" fill="#FF0000"/>
<path d="M4.74268 10V3.60156H6.83447C7.52881 3.60156 8.05029 3.74512 8.39893 4.03223C8.75049 4.31934 8.92627 4.74414 8.92627 5.30664C8.92627 5.60547 8.84131 5.87061 8.67139 6.10205C8.50146 6.33057 8.27002 6.50781 7.97705 6.63379C8.32275 6.73047 8.59521 6.91504 8.79443 7.1875C8.99658 7.45703 9.09766 7.7793 9.09766 8.1543C9.09766 8.72852 8.91162 9.17969 8.53955 9.50781C8.16748 9.83594 7.6416 10 6.96191 10H4.74268ZM5.58643 7.00732V9.31006H6.97949C7.37207 9.31006 7.68115 9.20898 7.90674 9.00684C8.13525 8.80176 8.24951 8.52051 8.24951 8.16309C8.24951 7.39258 7.83057 7.00732 6.99268 7.00732H5.58643ZM5.58643 6.33057H6.86084C7.22998 6.33057 7.52441 6.23828 7.74414 6.05371C7.9668 5.86914 8.07812 5.61865 8.07812 5.30225C8.07812 4.95068 7.97559 4.6958 7.77051 4.5376C7.56543 4.37646 7.25342 4.2959 6.83447 4.2959H5.58643V6.33057Z" fill="white"/>
</svg>
