<svg enable-background="new 0 0 512 512" height="30" viewBox="0 0 512 512" width="30" xmlns="http://www.w3.org/2000/svg">
<path d="m152.448 243.058c-1.235-11.594-6.543-21.983-14.46-29.717-9.872 6.298-21.577 9.965-34.13 9.965s-24.258-3.667-34.13-9.965c-9.086 8.875-14.74 21.248-14.74 34.924v49.029h43.721z"/>
<path d="m103.858 193.306c18.557 0 33.653-15.097 33.653-33.653 0-18.557-15.097-33.653-33.653-33.653s-33.653 15.097-33.653 33.653 15.097 33.653 33.653 33.653z"/><path d="m456.737 75.349h-95.512l-223.497 225.566v-.377l-26.511 26.756h-67.262c-25.067 5.233-43.955 27.498-43.955 54.095 0 30.472 24.791 55.262 55.263 55.262h103.564l248.478-250.778h49.432c30.472 0 55.263-24.791 55.263-55.263 0-30.471-24.791-55.261-55.263-55.261z"/>
<path d="m352.413 298.708 21.212 21.212 31.042-31.04v89.12h30v-89.12l31.041 31.04 21.212-21.212-67.253-67.255z"/>
<path d="m357.667 406.651h124v30h-124z"/>
</svg>