<svg height="25pt" viewBox="-52 0 512 512" width="25pt" xmlns="http://www.w3.org/2000/svg">
    <path d="m253.585938 68.527344c-22.460938-3.164063-43.234376 12.480468-46.398438 34.941406s12.480469 43.234375 34.941406 46.398438c22.460938 3.164062 43.234375-12.480469 46.398438-34.941407 3.164062-22.460937-12.480469-43.234375-34.941406-46.398437zm0 0"/>
    <path d="m353.714844 139.894531c-8.257813-6.132812-19.925782-4.414062-26.058594 3.839844l-36.726562 49.421875-35.5-12.136719 18.132812 2.351563c-2.648438-8.949219-10.296875-15.988282-20.140625-17.375-25.066406-3.519532-43.816406-6.078125-57.210937-7.859375-6.429688-.859375-12.960938.457031-18.5625 3.738281l-65.171876 38.183594c-6.097656 3.574218-9.644531 10.292968-9.164062 17.34375l5.8125 84.714844c.703125 10.261718 9.589844 18.011718 19.855469 17.308593 10.261719-.703125 18.011719-9.59375 17.308593-19.855469l-5.019531-73.210937 24.488281-14.359375-14.96875 106.28125-4.050781 59.800781-80.097656 13.820313c-11.980469 2.066406-20.5 13.191406-18.792969 25.226562 1.777344 12.515625 13.519532 21.042969 25.933594 18.902344l97.871094-16.882812c10.160156-1.753907 17.800781-10.230469 18.5-20.515626l4.613281-68.183593 26.441406 4.34375 25.617188 54.335937 10.875 102.867188c1.210937 11.476562 10.90625 20.003906 22.199219 20.003906 13.371093 0 23.640624-11.566406 22.253906-24.703125l-11.273438-106.625c-.265625-2.488281-.945312-4.917969-2.011718-7.179687l-30.464844-64.628907 10.722656-77.507812-25.75-15.089844 48.367188 16.539063c7.664062 2.625 16.148437-.015626 20.976562-6.515626l44.835938-60.332031c6.136718-8.257812 4.417968-19.925781-3.839844-26.0625zm0 0"/>
    <path d="m393.710938 0h-378.5625c-8.363282 0-15.148438 6.78125-15.148438 15.148438v481.703124c0 8.363282 6.78125 15.148438 15.148438 15.148438 8.371093 0 15.152343-6.78125 15.152343-15.148438v-466.550781h348.257813v466.550781c0 8.363282 6.785156 15.148438 15.152344 15.148438 8.367187 0 15.148437-6.78125 15.148437-15.148438v-481.703124c0-8.367188-6.78125-15.148438-15.148437-15.148438zm0 0"/>
</svg>