<svg width="23" height="18" viewBox="0 0 23 18" fill="none" xmlns="http://www.w3.org/2000/svg">
<path d="M18.0006 13.0004C18.0006 12.8505 18.0343 12.7024 18.0992 12.5673C18.1641 12.4321 18.2586 12.3133 18.3756 12.2195L22.4 9.0003L18.3756 5.78107C18.2586 5.68735 18.1641 5.56851 18.0992 5.43333C18.0343 5.29816 18.0006 5.15012 18.0006 5.00017V0H0V18.0006H18.0006V13.0004ZM9.0003 16.0005C7.67463 15.999 6.40368 15.4718 5.46629 14.5344C4.5289 13.597 4.00162 12.326 4.00013 11.0004C3.99993 9.83453 4.32346 8.69153 4.93467 7.69876L8.14865 2.47608C8.23816 2.33065 8.36343 2.21055 8.51251 2.12725C8.66159 2.04395 8.82952 2.00022 9.0003 2.00022C9.17108 2.00022 9.33901 2.04395 9.48809 2.12725C9.63718 2.21055 9.76244 2.33065 9.85196 2.47608L13.0659 7.69876C13.6771 8.69153 14.0007 9.83453 14.0005 11.0004C13.999 12.326 13.4717 13.597 12.5343 14.5344C11.5969 15.4718 10.326 15.999 9.0003 16.0005V16.0005Z" fill="black"/>
<path d="M9.00053 4.90991L6.63795 8.74854C6.22086 9.42616 6.00015 10.2063 6.00043 11.002C6.00043 11.7977 6.31651 12.5608 6.87914 13.1234C7.44177 13.686 8.20486 14.0021 9.00053 14.0021C9.79621 14.0021 10.5593 13.686 11.1219 13.1234C11.6846 12.5608 12.0006 11.7977 12.0006 11.002C12.0009 10.2063 11.7802 9.42616 11.3631 8.74854L9.00053 4.90991Z" fill="black"/>
</svg>
