<svg enable-background="new 0 0 512 512" height="30" viewBox="0 0 512 512" width="30" xmlns="http://www.w3.org/2000/svg">
<circle cx="276.395" cy="51.762" r="51.776"/>
<path d="m508.833 229.524-59.827-119.646c-14.239-28.563-43.493-46.607-75.421-46.607-22.695 0-44.528 9.026-60.579 25.103s-25.112 37.875-25.112 60.604v35.104h-32.259c-29.906 0-54.137 24.294-54.035 54.224.028 8.21 6.79 14.812 15 14.812h124.726c8.284 0 15-6.716 15-15v-88.553l69.466 138.071-.081 209.359c-.003 8.287 6.713 15.006 15 15.006h56.289c8.284 0 15-6.716 15-15v-254.06c0-4.657-1.084-9.251-3.167-13.417z"/>
<path d="m51.533 186.709c8.284 0 15-6.724 15-15.008 0-9.438 7.686-17.117 17.133-17.117s17.133 7.686 17.133 17.133v81.4h30v-81.4c0-9.447 7.686-17.133 17.133-17.133s17.133 7.686 17.133 17.133c0 8.284 6.716 15 15 15s15-6.716 15-15c0-25.989-21.144-47.133-47.133-47.133-12.41 0-23.707 4.829-32.133 12.696-8.426-7.867-19.723-12.696-32.133-12.696-25.989 0-47.133 21.137-47.133 47.133 0 8.285 6.716 14.992 15 14.992z"/>
<path d="m216.6 283.118h-201.6c-8.284 0-15 6.716-15 15v18.2c0 34.849 28.352 63.2 63.2 63.2h105.2c34.849 0 63.2-28.351 63.2-63.2v-18.2c0-8.285-6.716-15-15-15z"/>
</svg>